<?xml version="1.0" encoding="UTF-8" standalone="no"?>
<!-- Created with Inkscape (http://www.inkscape.org/) -->

<svg
   xmlns:dc="http://purl.org/dc/elements/1.1/"
   xmlns:cc="http://creativecommons.org/ns#"
   xmlns:rdf="http://www.w3.org/1999/02/22-rdf-syntax-ns#"
   xmlns:svg="http://www.w3.org/2000/svg"
   xmlns="http://www.w3.org/2000/svg"
   xmlns:sodipodi="http://sodipodi.sourceforge.net/DTD/sodipodi-0.dtd"
   xmlns:inkscape="http://www.inkscape.org/namespaces/inkscape"
   id="svg2"
   version="1.1"
   viewBox="0 0 499.99999 500.00001"
   inkscape:version="0.48.2 r9819"
   width="100%"
   height="100%"
   sodipodi:docname="train.svg">
  <defs
     id="defs6657" />
  <sodipodi:namedview
     pagecolor="#ffffff"
     bordercolor="#666666"
     borderopacity="1"
     objecttolerance="10"
     gridtolerance="10"
     guidetolerance="10"
     inkscape:pageopacity="0"
     inkscape:pageshadow="2"
     inkscape:window-width="1366"
     inkscape:window-height="720"
     id="namedview6655"
     showgrid="false"
     inkscape:zoom="2.6700351"
     inkscape:cx="135.29208"
     inkscape:cy="453.40672"
     inkscape:window-x="0"
     inkscape:window-y="0"
     inkscape:window-maximized="1"
     inkscape:current-layer="svg2" />
  <title
     id="title3830">Hotel is near transit stop</title>
  <path
     id="path99"
     style="fill:#000000;fill-rule:evenodd"
     d="M -0.31899362,47.989002 H 18.568786 l 13.79253,18.90124 h 11.12047 l -19.28,-27.05167 c 6.43128,-0.96855 12.83599,-7.22991 12.83599,-14.86623 v -55.889809 c 0,-7.87209 -7.09929,-15.115462 -16.73965,-15.115462 l -20.53779962,-0.0262 -20.69572038,0.0262 c -9.64036,0 -16.72655,7.243372 -16.72655,15.115462 v 55.889809 c 0,7.63632 6.39162,13.89768 12.82326,14.86623 l -19.26545,27.05167 h 11.10701 l 13.79253,-18.90124 h 18.88814038 z"
     inkscape:connector-curvature="0" />
  <path
     id="path105"
     style="fill:#ffffff;fill-rule:evenodd"
     d="m 20.481866,31.692502 c 4.04774,0 7.33506,-3.06501 7.33506,-6.86388 0,-3.78469 -3.28732,-6.85042 -7.33506,-6.85042 -4.04702,0 -7.33506,3.06573 -7.33506,6.85042 -3e-4,3.79887 3.28804,6.86388 7.33506,6.86388 z"
     inkscape:connector-curvature="0" />
  <path
     id="path107"
     style="fill:#ffffff;fill-rule:evenodd"
     d="M -0.31899362,-4.6007576 H 19.734896 c 4.61061,0 8.38256,-2.96022 8.34363,-7.7935004 v -10.05951 c 0,-4.178366 -2.89509,-7.832796 -8.34363,-7.832796 h -40.10633 c -5.44926,0 -8.34399,3.65443 -8.34399,7.832796 v 10.05951 c -0.0393,4.8332804 3.73338,7.7935004 8.34399,7.7935004 h 20.05317038 z"
     inkscape:connector-curvature="0" />
  <path
     id="path109"
     style="fill:#ffffff;fill-rule:evenodd"
     d="M -0.31899362,-33.300635 H 7.8019659 c 1.53287,0 2.7371801,-1.165748 2.7371801,-2.541073 v -4.453429 c 0,-1.362225 -1.2705301,-2.514877 -2.7371801,-2.514877 H -8.4264936 c -1.46701,0 -2.7510104,1.152652 -2.7510104,2.514877 v 4.453429 c 0,1.375325 1.2054104,2.541073 2.7510104,2.541073 h 8.10749998 z"
     inkscape:connector-curvature="0" />
  <path
     id="path111"
     style="fill:#ffffff;fill-rule:evenodd"
     d="m -21.290864,31.692502 c -4.04738,0 -7.32196,-3.06501 -7.32196,-6.86388 0,-3.78469 3.27458,-6.85042 7.32196,-6.85042 4.06048,0 7.34816,3.06573 7.34816,6.85042 3e-4,3.79887 -3.28731,6.86388 -7.34816,6.86388 z"
     inkscape:connector-curvature="0" />
  <metadata
     id="metadata6653">
    <rdf:RDF>
      <cc:Work>
        <dc:format>image/svg+xml</dc:format>
        <dc:type
           rdf:resource="http://purl.org/dc/dcmitype/StillImage" />
        <cc:license
           rdf:resource="http://creativecommons.org/licenses/publicdomain/" />
        <dc:publisher>
          <cc:Agent
             rdf:about="http://openclipart.org/">
            <dc:title>Openclipart</dc:title>
          </cc:Agent>
        </dc:publisher>
        <dc:title>Hotel Icon Near Transit Stop</dc:title>
        <dc:date>2010-04-23T19:42:17</dc:date>
        <dc:description>Hotel Icons. Originally done for a request, this set has been re-mixed to simple black and white versions. </dc:description>
        <dc:source>https://openclipart.org/detail/50545/hotel-icon-near-transit-stop-by-gerald_g</dc:source>
        <dc:creator>
          <cc:Agent>
            <dc:title>Gerald_G</dc:title>
          </cc:Agent>
        </dc:creator>
        <dc:subject>
          <rdf:Bag>
            <rdf:li>hotel</rdf:li>
            <rdf:li>icon</rdf:li>
            <rdf:li>request+completed</rdf:li>
            <rdf:li>services</rdf:li>
            <rdf:li>source+wiki</rdf:li>
            <rdf:li>train</rdf:li>
            <rdf:li>transit</rdf:li>
            <rdf:li>transportation</rdf:li>
          </rdf:Bag>
        </dc:subject>
      </cc:Work>
      <cc:License
         rdf:about="http://creativecommons.org/licenses/publicdomain/">
        <cc:permits
           rdf:resource="http://creativecommons.org/ns#Reproduction" />
        <cc:permits
           rdf:resource="http://creativecommons.org/ns#Distribution" />
        <cc:permits
           rdf:resource="http://creativecommons.org/ns#DerivativeWorks" />
      </cc:License>
    </rdf:RDF>
  </metadata>
</svg>
